<?xml version="1.0" encoding="iso-8859-1"?>
<!-- Generator: Adobe Illustrator 19.0.0, SVG Export Plug-In . SVG Version: 6.00 Build 0)  -->
<svg version="1.1" id="Capa_1" xmlns="http://www.w3.org/2000/svg" xmlns:xlink="http://www.w3.org/1999/xlink" x="0px" y="0px"
	 viewBox="0 0 512.001 512.001" style="enable-background:new 0 0 512.001 512.001;" xml:space="preserve">
<path d="M437.013,74.988c99.984,99.984,99.984,262.039,0,362.024s-262.039,99.984-362.024,0l103.436-258.588L437.013,74.988z"/>
<path style="fill:#4D4D4D;" d="M437.013,74.988L74.989,437.012c-99.985-99.984-99.985-262.039,0-362.024
	S337.029-24.996,437.013,74.988z"/>
<path style="fill:#D5F6F5;" d="M415.801,96.201c88.267,88.267,88.267,231.332,0,319.599s-231.332,88.267-319.599,0l91.314-228.285
	L415.801,96.201z"/>
<path style="fill:#FFFFFF;" d="M415.801,96.201L96.202,415.8c-88.267-88.267-88.267-231.332,0-319.599S327.533,7.934,415.801,96.201
	z"/>
<path style="fill:#ABECEC;" d="M352.163,159.838c53.117,53.117,53.117,139.208,0,192.325s-139.208,53.117-192.325,0l54.95-137.375
	L352.163,159.838z"/>
<path style="fill:#D5F6F5;" d="M352.163,159.838L159.838,352.163c-53.117-53.117-53.117-139.208,0-192.325
	S299.047,106.721,352.163,159.838z"/>
<rect x="241.001" y="60.008" style="fill:#81E3E2;" width="29.999" height="29.999"/>
<rect x="60.008" y="241" style="fill:#ABECEC;" width="29.999" height="29.999"/>
<g>
	<rect x="241.001" y="421.993" style="fill:#81E3E2;" width="29.999" height="29.999"/>
	<rect x="421.993" y="241" style="fill:#81E3E2;" width="29.999" height="29.999"/>
</g>
<polygon style="fill:#FE5F1A;" points="396.024,115.71 310.043,309.392 213.746,255.562 "/>
<polygon style="fill:#FE834D;" points="396.024,115.71 234.958,276.775 202.439,201.86 "/>
<polygon style="fill:#02ACAB;" points="310.043,309.392 116.445,395.528 116.636,395.097 186.403,282.905 256.17,255.562 "/>
<path style="fill:#42C8C6;" d="M256.17,255.562L116.636,395.096l85.789-193.237C202.439,201.86,256.17,255.562,256.17,255.562z"/>
<g>
</g>
<g>
</g>
<g>
</g>
<g>
</g>
<g>
</g>
<g>
</g>
<g>
</g>
<g>
</g>
<g>
</g>
<g>
</g>
<g>
</g>
<g>
</g>
<g>
</g>
<g>
</g>
<g>
</g>
</svg>
